# Blender v2.61 (sub 0) OBJ File: 'chapel_dec02.blend'
# www.blender.org
mtllib chapel_dec02.mtl
o Mesh.002_chapel.005
v -4.273727 2.011243 -0.572731
v -2.461529 7.654998 -0.598039
v -3.064420 9.779086 -0.003113
v -3.267381 6.436237 0.523096
v -3.667308 7.654999 -0.598039
v -2.951416 6.590972 -0.593201
v -3.207034 7.342994 0.586975
v 3.841244 3.051802 2.676282
v -1.729620 2.352297 2.577796
v -2.082348 2.557009 2.560822
v 3.860976 0.014147 3.321818
v 3.646465 0.014141 -2.613193
v -3.667308 7.654999 0.591814
v -4.244393 1.724368 -3.286040
v -4.362137 2.295907 -2.613225
v -4.275355 0.024981 0.698672
v -4.197650 2.497502 0.010403
v -4.181028 0.023899 -0.647556
v -4.314775 3.050638 2.671638
v 3.841244 3.051804 -2.633631
v -4.107476 0.014141 -2.613193
v 1.435010 1.141451 2.536726
v -4.094545 2.293182 2.655861
v -4.363287 2.295909 2.655879
v -1.944250 1.118584 2.562162
v -4.307181 3.050299 -2.628399
v -2.800088 7.484388 0.586119
v -4.244393 1.724376 3.328695
v 3.820785 2.293650 2.657369
v 3.870602 0.014147 -3.279215
v 1.297141 2.564090 2.567391
v -4.107476 0.014141 2.655851
v 1.297141 2.564089 -2.524734
v 1.648714 2.350222 -2.531003
v -2.474331 5.833011 -0.593201
v 3.765333 1.722812 3.330326
v -1.729620 2.352297 -2.535139
v 3.817401 6.770780 0.021328
v -4.094544 2.293180 -2.613205
v 1.648712 2.350235 2.573663
v -2.082347 2.557011 -2.518162
v -4.299141 0.013958 -3.278188
v -3.654790 6.434174 -0.277567
v 3.765333 1.722804 -3.287671
v -2.474394 6.570181 0.217019
v -4.304626 0.013946 3.320840
v -3.245195 7.298237 -0.593205
v -4.247266 2.017554 0.609227
v 3.855574 2.293672 -2.614811
v 3.646465 0.014141 2.655851
v -2.805884 7.227522 -0.593202
v 1.435010 1.141450 -2.494068
v -1.944249 1.118583 -2.519505
v -4.282095 6.767519 0.021299
vt 0.153440 0.921127
vt 0.178689 0.926584
vt 0.166004 0.994520
vt 0.153319 0.926584
vt 0.569767 1.036076
vt 0.606649 1.036076
vt 0.588208 1.173637
vt 0.833996 0.933485
vt 0.821311 0.865549
vt 0.846681 0.865549
vt 0.626222 0.737866
vt 0.619718 0.688833
vt 0.627903 0.689010
vt 0.109276 0.793255
vt 0.094927 0.774998
vt 0.095108 0.720349
vt 0.570160 0.965821
vt 0.377705 0.978812
vt 0.376975 0.737963
vt 0.382933 0.541238
vt 0.379297 0.651894
vt 0.376077 0.541238
vt 0.570158 0.918080
vt 0.584751 0.967167
vt 0.778019 0.718274
vt 0.821851 0.685041
vt 0.834517 0.837164
vt 0.221692 0.793256
vt 0.165483 0.936450
vt 0.108873 0.817504
vt 0.778342 0.694145
vt 0.395477 0.696174
vt 0.613693 0.722540
vt 0.313198 0.722810
vt 0.352341 0.920601
vt 0.354548 0.970126
vt 0.337589 0.987278
vt 0.519987 0.696400
vt 0.606266 0.957013
vt 0.580300 1.008392
vt 0.834284 0.700593
vt 0.820255 0.621478
vt 0.847053 0.685243
vt 0.558168 0.705919
vt 0.454795 0.706378
vt 0.547379 0.692662
vt 0.593738 1.012972
vt 0.313404 0.552276
vt 0.320839 0.555876
vt 0.321316 0.681225
vt 0.594416 0.957146
vt 0.580122 1.025027
vt 0.613499 0.941447
vt 0.381637 0.929593
vt 0.612392 0.179859
vt 0.602639 0.000000
vt 0.623360 0.133808
vt 0.311414 0.681386
vt 0.315621 0.646308
vt 0.553944 0.612764
vt 0.668120 0.883862
vt 0.675706 0.951866
vt 0.673966 1.106812
vt 0.222093 0.817504
vt 0.620113 0.541238
vt 0.764164 0.621160
vt 0.400564 0.617046
vt 0.625976 0.541226
vt 0.624301 0.651996
vt 0.444041 0.692527
vt 0.376537 0.688865
vt 0.532939 0.684591
vt 0.612944 0.680944
vt 0.525075 0.618314
vt 0.450578 0.614245
vt 0.235858 0.720349
vt 0.606522 0.555582
vt 0.625455 0.978601
vt 0.353446 0.974048
vt 0.369632 0.970142
vt 0.364270 0.935136
vt 0.891028 0.718284
vt 0.845216 0.826568
vt 0.828144 0.826502
vt 0.904871 0.621160
vt 0.154784 0.887603
vt 0.161310 0.891887
vt 0.731908 0.413597
vt 0.760370 0.411481
vt 0.824521 0.476540
vt 0.848960 0.621513
vt 0.369542 0.977892
vt 0.614253 0.551973
vt 0.610727 0.645910
vt 0.333940 0.723950
vt 0.553388 1.000000
vt 0.000000 0.000000
vt 0.236039 0.774998
vt 0.890692 0.694146
vt 0.408468 0.684809
vt 0.905038 0.675866
vt 0.565313 0.563597
vt 0.541524 0.551866
vt 0.569034 0.564871
vt 0.178586 0.868310
vn 0.937807 0.183673 0.294589
vn 0.056390 0.254404 0.965453
vn 0.000000 0.269706 -0.962943
vn -0.962000 0.273048 0.000000
vn -0.000133 -0.020100 -0.999798
vn 0.990250 0.054792 0.128074
vn -0.043795 0.580284 -0.813236
vn -0.946070 -0.059862 -0.318382
vn -0.004171 -0.002626 -0.999988
vn -0.999889 -0.003566 0.014469
vn 0.999970 0.007570 0.001624
vn -0.995855 0.073621 0.053418
vn -0.000524 -0.221296 0.975206
vn -0.000627 0.590603 -0.806962
vn -0.035530 -0.067876 0.997061
vn -0.001459 -0.210648 0.977561
vn -0.356835 -0.224603 -0.906765
vn -0.019609 0.004483 -0.999798
vn -0.997286 0.012593 -0.072538
vn -0.002104 0.079043 -0.996869
vn 0.000000 -0.013548 -0.999908
vn 0.958739 -0.005441 0.284236
vn -0.891280 0.409114 -0.195565
vn 0.006788 0.581042 0.813845
vn -0.996936 0.076250 -0.017469
vn 0.007785 0.762796 0.646593
vn 0.004377 -0.013433 -0.999900
vn -0.979860 0.030458 -0.197351
vn 0.046475 0.005394 -0.998905
vn 0.999686 0.018477 -0.016904
vn 0.043397 -0.000252 -0.999058
vn -0.998536 -0.038603 0.037879
vn 0.043397 -0.000251 0.999058
vn 0.981021 -0.032279 -0.191197
vn -0.037878 0.002765 -0.999279
vn -0.039118 -0.023865 0.998950
vn 0.007821 0.762788 -0.646601
vn -0.001606 -0.010022 -0.999949
vn 0.250219 0.462409 0.850628
vn -0.032862 -0.024722 0.999154
vn -0.063562 -0.019251 -0.997792
vn 0.048071 -0.006829 0.998821
vn 0.046473 0.005393 0.998905
vn -0.989133 -0.019933 0.145666
vn 0.007666 -0.020808 -0.999754
vn -0.036777 -0.031178 -0.998837
vn 0.999980 0.006167 0.001458
vn 0.000000 0.084525 0.996421
vn 0.388454 0.901608 -0.190281
vn 0.006676 0.118027 -0.992988
vn -0.158780 -0.986397 0.042542
vn -0.038449 0.002275 0.999258
vn 0.999787 0.019551 0.006597
vn 0.880942 0.365921 0.300070
vn -0.000549 0.572237 0.820088
vn -0.983705 -0.052360 0.171998
vn -0.078954 0.578987 -0.811505
vn -0.063562 -0.019252 0.997792
vn 0.960871 -0.005454 -0.276941
vn -0.207631 0.569131 0.795600
vn -0.036777 -0.031167 0.998837
vn -0.001460 -0.210654 -0.977560
vn 0.000000 0.084525 -0.996421
vn 0.999610 -0.027139 0.006596
vn -0.857061 -0.304664 0.415483
vn -0.999563 -0.009336 -0.028042
vn -0.000143 -0.020867 0.999782
vn 0.383694 -0.224914 0.895652
vn -0.994256 0.091246 0.055930
vn -0.032855 -0.024722 -0.999154
vn -0.997822 -0.048237 0.044984
vn -0.352112 -0.241017 -0.904394
vn 0.017637 0.007321 -0.999818
vn -0.050332 -0.003900 -0.998725
vn -0.997494 0.010924 -0.069900
vn 0.321950 -0.925396 0.199977
vn 0.107678 0.735368 -0.669058
vn -0.950415 -0.054724 0.306133
vn 0.981411 -0.035427 0.188622
vn -0.084771 -0.996387 -0.005139
vn -0.999846 0.013596 -0.011104
vn 0.981462 0.059565 -0.182165
vn 0.931143 0.211918 0.296754
vn 0.004954 -0.008198 0.999954
vn 0.048037 -0.006552 -0.998824
vn 0.064942 0.560867 -0.825355
vn 0.959399 -0.055896 -0.276457
vn 0.007666 -0.020807 0.999754
vn -0.002103 0.079033 0.996870
vn 0.004377 -0.013432 0.999900
vn -0.050325 -0.003901 0.998725
vn 0.006676 0.118027 0.992988
vn -0.999947 -0.010253 0.000000
vn -0.994996 -0.019427 -0.098011
vn -0.999568 -0.010715 -0.027351
vn -0.978917 0.033548 0.201484
vn -0.038589 -0.025527 -0.998929
vn 0.997486 -0.064284 -0.029815
vn -0.000586 -0.220608 -0.975362
vn 0.999955 -0.007009 0.006455
vn -0.973915 0.222663 -0.043712
usemtl mat:cubemap_chapel.cubicmap
s off
f 27/1/1 2/2/1 3/3/1
f 13/4/2 27/1/2 3/3/2
f 2/5/3 5/6/3 3/7/3
f 3/8/4 5/9/4 13/10/4
f 26/11/5 39/12/5 15/13/5
f 29/14/6 36/15/6 11/16/6
f 45/17/7 38/18/7 20/19/7
f 12/20/8 44/21/8 30/22/8
f 2/5/9 35/23/9 6/24/9
f 26/25/10 1/26/10 54/27/10
f 49/28/11 38/29/11 8/30/11
f 1/26/12 26/25/12 15/31/12
f 10/32/13 8/33/13 19/34/13
f 35/23/14 20/19/14 26/11/14
f 4/35/15 7/36/15 13/37/15
f 31/38/16 8/33/16 10/32/16
f 35/23/17 43/39/17 6/24/17
f 6/24/18 51/40/18 2/5/18
f 17/41/19 18/42/19 48/43/19
f 41/44/20 33/45/20 37/46/20
f 5/6/21 2/5/21 47/47/21
f 46/48/22 32/49/22 23/50/22
f 6/24/23 4/51/23 27/52/23
f 38/53/24 45/54/24 8/33/24
f 29/55/25 50/56/25 36/57/25
f 23/50/26 24/58/26 28/59/26
f 37/46/27 33/45/27 53/60/27
f 15/61/28 14/62/28 42/63/28
f 41/44/29 53/60/29 39/12/29
f 49/28/30 20/64/30 38/29/30
f 39/12/31 53/60/31 21/65/31
f 42/66/32 1/26/32 15/31/32
f 23/50/33 32/49/33 25/67/33
f 39/12/34 42/68/34 14/69/34
f 34/70/35 49/71/35 12/20/35
f 8/33/36 40/72/36 29/73/36
f 39/12/37 14/69/37 15/13/37
f 2/5/38 51/40/38 47/47/38
f 4/35/39 19/34/39 45/54/39
f 40/72/40 31/38/40 22/74/40
f 34/70/41 12/20/41 52/75/41
f 19/34/42 23/50/42 10/32/42
f 23/50/43 25/67/43 10/32/43
f 54/27/44 1/26/44 17/41/44
f 33/45/45 52/75/45 53/60/45
f 20/19/46 34/70/46 33/45/46
f 11/16/47 30/76/47 49/28/47
f 25/67/48 32/49/48 50/77/48
f 43/39/49 54/78/49 4/51/49
f 12/20/50 53/60/50 52/75/50
f 7/36/51 47/79/51 51/80/51
f 29/73/52 40/72/52 50/77/52
f 49/28/53 29/14/53 11/16/53
f 4/35/54 6/81/54 47/79/54
f 45/54/55 19/34/55 8/33/55
f 17/41/56 1/26/56 18/42/56
f 54/78/57 43/39/57 26/11/57
f 40/72/58 22/74/58 50/77/58
f 42/68/59 39/12/59 21/65/59
f 54/27/60 19/82/60 4/83/60
f 31/38/61 40/72/61 8/33/61
f 33/45/62 41/44/62 20/19/62
f 53/60/63 12/20/63 21/65/63
f 8/30/64 29/14/64 49/28/64
f 43/84/65 4/83/65 13/10/65
f 48/43/66 46/85/66 19/82/66
f 19/34/67 24/58/67 23/50/67
f 4/86/68 45/87/68 27/1/68
f 49/88/69 44/89/69 12/90/69
f 34/70/70 52/75/70 33/45/70
f 1/26/71 42/66/71 18/42/71
f 6/24/72 43/39/72 5/6/72
f 47/47/73 6/24/73 5/6/73
f 41/44/74 37/46/74 53/60/74
f 48/43/75 18/42/75 16/91/75
f 51/80/76 27/92/76 7/36/76
f 45/17/77 20/19/77 35/23/77
f 50/77/78 11/93/78 36/94/78
f 23/50/79 28/59/79 46/48/79
f 16/95/80 18/96/80 46/97/80
f 48/43/81 16/91/81 46/85/81
f 49/28/82 30/76/82 44/98/82
f 2/2/83 27/1/83 45/87/83
f 7/36/84 27/92/84 13/37/84
f 26/11/85 41/44/85 39/12/85
f 43/39/86 35/23/86 26/11/86
f 46/85/87 24/99/87 19/82/87
f 31/38/88 25/67/88 22/74/88
f 10/32/89 9/100/89 31/38/89
f 9/100/90 25/67/90 31/38/90
f 10/32/91 25/67/91 9/100/91
f 50/77/92 22/74/92 25/67/92
f 43/84/93 13/10/93 5/9/93
f 54/27/94 17/41/94 48/43/94
f 54/27/95 48/43/95 19/82/95
f 24/99/96 46/85/96 28/101/96
f 20/19/97 49/71/97 34/70/97
f 7/102/98 4/103/98 47/104/98
f 41/44/99 26/11/99 20/19/99
f 45/87/100 35/105/100 2/2/100
f 51/40/101 6/24/101 27/52/101
