mtllib cubotex.mtl
v -10  10  10
v  10  10  10
v  10  10 -10
v -10  10 -10
v -10 -10  10
v  10 -10  10
v  10 -10 -10
v -10 -10 -10
#    {-10.0,  10.0,  10.0}, //left,top,front
#    { 10.0,  10.0,  10.0}, //right,top,front
#    { 10.0,  10.0, -10.0}, //right,top,back
#    {-10.0,  10.0, -10.0}, //left,top,back
#    {-10.0, -10.0,  10.0}, //left,bottom,front  
#    { 10.0, -10.0,  10.0}, //right,bottom,front 
#    { 10.0, -10.0, -10.0}, //right,bottom,back  
#    {-10.0, -10.0, -10.0}  //left,bottom,back   

vt 0 0
vt 1 0
vt 1 1
vt 0 1

vn 0 0 -1
vn 0 0 1
vn 0 1 0
vn 0 -1 0
vn 1 0 0
vn -1 0 0

usemtl TEX
f 3/3/5 2/4/5 6/1/5 7/2/5
f 1/3/6 4/4/6 8/1/6 5/2/6
f 1/1/3 2/2/3 3/3/3 4/4/3
f 5/4/4 8/1/4 7/2/4 6/3/4
f 1/4/2 5/1/2 6/2/2 2/3/2
f 4/3/1 3/4/1 7/1/1 8/2/1


#{0,1,2,3}, //top
#{0,3,7,4}, //left
#{3,2,6,7}, //back
#{2,1,5,6}, //right
#{0,4,5,1}, //front
#{4,7,6,5}, //bottom
