# Blender3D v249 OBJ File: 
# www.blender3d.org
mtllib house01.mtl
v -1.156060 4.596710 0.584630
v -1.600560 4.596710 0.584630
v -1.600560 4.596710 1.029130
v -1.156060 4.596710 1.029130
v -1.600560 3.224570 1.029130
v -1.156060 3.224570 1.029130
v -1.156060 3.224570 0.584630
v -1.600560 3.224570 0.584630
v 2.457440 4.448290 -0.000000
v -2.457440 4.448290 -0.000000
v -2.457440 2.543290 1.905000
v 2.457440 2.543290 1.905000
v 2.457440 2.543290 -1.905000
v -2.457440 2.543290 -1.905000
v 2.222500 2.543290 1.529000
v -2.222500 2.543290 1.529000
v -2.222500 0.003287 1.529000
v 2.222500 0.003287 1.529000
v 2.222500 2.543290 -1.529000
v 2.222500 0.003287 -1.529000
v -2.222500 2.543290 -1.529000
v -2.222500 0.003287 -1.529000
vt 0.903970 0.949088
vt 0.862429 0.949088
vt 0.862429 0.907547
vt 0.903970 0.907547
vt 0.076835 0.189563
vt 0.118376 0.189563
vt 0.118376 0.317797
vt 0.076835 0.317797
vt 0.923951 0.635334
vt 0.965491 0.635334
vt 0.965491 0.763568
vt 0.923951 0.763568
vt 0.076835 0.056829
vt 0.118376 0.056829
vt 0.118376 0.185063
vt 0.076835 0.185063
vt 0.925233 0.781426
vt 0.966774 0.781426
vt 0.966774 0.909660
vt 0.925233 0.909660
vt 0.005000 0.552595
vt 0.464320 0.552595
vt 0.464320 0.730627
vt 0.005000 0.730627
vt 0.833883 0.803470
vt 0.477819 0.803470
vt 0.655851 0.625437
vt 0.005000 0.374563
vt 0.464320 0.374563
vt 0.833883 0.995000
vt 0.477819 0.995000
vt 0.655851 0.816968
vt 0.477819 0.005000
vt 0.974438 0.005000
vt 0.974438 0.310667
vt 0.477819 0.310667
vt 0.485201 0.330266
vt 0.970324 0.330266
vt 0.970324 0.604556
vt 0.485201 0.604556
vt 0.005000 0.744125
vt 0.420408 0.744125
vt 0.420408 0.981502
vt 0.005000 0.981502
vt 0.122875 0.080421
vt 0.408662 0.080421
vt 0.408662 0.317797
vt 0.122875 0.317797
vt 0.005000 0.005000
vt 0.464320 0.005000
vt 0.442364 0.040139
vt 0.026956 0.040139
vt 0.464320 0.361064
vt 0.442364 0.325926
vt 0.005000 0.361064
vt 0.026956 0.325926
vn 0.000000 1.000000 0.000000
vn 0.000000 0.000000 1.000000
vn 1.000000 0.000000 0.000000
vn 0.000000 -0.000000 -1.000000
vn -1.000000 0.000000 0.000000
vn 0.000000 0.707107 0.707107
vn 0.000000 0.707107 -0.707107
vn 0.000000 -1.000000 0.000000
usemtl house_housemap.jpg
s off
f 1/1/1 2/2/1 3/3/1
f 4/4/1 1/1/1 3/3/1
f 4/5/2 3/6/2 5/7/2
f 5/7/2 6/8/2 4/5/2
f 1/9/3 4/10/3 6/11/3
f 7/12/3 1/9/3 6/11/3
f 2/13/4 1/14/4 7/15/4
f 7/15/4 8/16/4 2/13/4
f 3/17/5 2/18/5 8/19/5
f 8/19/5 5/20/5 3/17/5
f 9/21/6 10/22/6 11/23/6
f 11/23/6 12/24/6 9/21/6
f 12/25/3 13/26/3 9/27/3
f 10/22/7 9/21/7 13/28/7
f 13/28/7 14/29/7 10/22/7
f 14/30/5 11/31/5 10/32/5
f 15/33/2 16/34/2 17/35/2
f 17/35/2 18/36/2 15/33/2
f 19/37/3 15/38/3 18/39/3
f 18/39/3 20/40/3 19/37/3
f 21/41/4 19/42/4 20/43/4
f 20/43/4 22/44/4 21/41/4
f 16/45/5 21/46/5 22/47/5
f 22/47/5 17/48/5 16/45/5
f 12/49/8 11/50/8 16/51/8
f 16/51/8 15/52/8 12/49/8
f 14/53/8 21/54/8 16/51/8
f 16/51/8 11/50/8 14/53/8
f 13/55/8 19/56/8 21/54/8
f 21/54/8 14/53/8 13/55/8
f 13/55/8 12/49/8 15/52/8
f 15/52/8 19/56/8 13/55/8
